<svg height="46" viewBox="0 0 120 46" width="120" xmlns="http://www.w3.org/2000/svg"><path d="m34.9087376 14.305341c3.5175038 1.4559013 5.8112677 4.8877597 5.8112677 8.694659.0026487 2.4947672-.9865338 4.8882638-2.7496635 6.6532692-1.7631297 1.7650053-4.1555732 2.7567362-6.6503418 2.7567362-3.8068971.0040402-7.2411925-2.2860659-8.700833-5.8020198s-.6570311-7.5650017 2.0334217-10.2583167 6.738645-3.5002292 10.2561489-2.0443279zm27.15 0c3.5175038 1.4559013 5.8112677 4.8877597 5.8112677 8.694659.0026487 2.4947672-.9865338 4.8882638-2.7496635 6.6532692-1.7631297 1.7650053-4.1555732 2.7567362-6.6503418 2.7567362-3.8068971.0040402-7.2411925-2.2860659-8.700833-5.8020198s-.6570311-7.5650017 2.0334217-10.2583167 6.738645-3.5002292 10.2561489-2.0443279zm27.1253501-.0018806c3.5199605 1.4547139 5.8159178 4.887824 5.8159178 8.6965396.0055249 5.1875793-4.192435 9.3989655-9.3800055 9.4100482-3.8086962.0120944-7.2491202-2.2728638-8.7150666-5.7881612-1.4659463-3.5152974-.6682885-7.5676169 2.0205767-10.265082 2.6888653-2.6974651 6.7386171-3.5080586 10.2585776-2.0533446zm-60.6653304 1.9337414c-2.7352966 1.1329969-4.5187642 3.8021346-4.5187642 6.7627982-.0026518 1.9421986.7677064 3.8056144 2.1410495 5.1789574 1.373343 1.3733431 3.2367588 2.1437013 5.1789574 2.1410495 2.9606636 0 5.6298013-1.7834676 6.7627982-4.5187642 1.1329969-2.7352965.5067288-5.883759-1.5867766-7.9772643-2.0935053-2.0935054-5.2419678-2.7197735-7.9772643-1.5867766zm27.1623146-.0009514c-2.7365245 1.1324085-4.5210787 3.8021765-4.5210787 6.7637496-.0026477 1.9404646.7663387 3.8023617 2.1375175 5.1754162 1.3711787 1.3730546 3.2320229 2.1445907 5.1724893 2.1445907 2.9615703.004039 5.6337754-1.7768543 6.7699238-4.5118281 1.1361484-2.7349739.5123511-5.8850751-1.5803654-7.9806544-2.0927165-2.0955794-5.2419621-2.7236825-7.9784865-1.591274zm27.15 0c-2.7365245 1.1324085-4.5210787 3.8021765-4.5210787 6.7637496-.0026477 1.9404646.7663387 3.8023617 2.1375175 5.1754162 1.3711787 1.3730546 3.2320229 2.1445907 5.1724893 2.1445907 2.9615703.004039 5.6337754-1.7768543 6.7699238-4.5118281 1.1361484-2.7349739.5123511-5.8850751-1.5803654-7.9806544-2.0927165-2.0955794-5.2419621-2.7236825-7.9784865-1.591274z" fill="#b4c8d4"/></svg>